<svg xml:space="preserve" style="enable-background:new 0 0 2400.41 1611.56;" viewBox="0 0 2400.41 1611.56" y="0px" x="0px" xmlns:xlink="http://www.w3.org/1999/xlink" xmlns="http://www.w3.org/2000/svg" id="레이어_1" version="1.1">
<style type="text/css">
	.st0{fill:#96C6DB;}
	.st1{fill:#FFFFFF;}
	.st2{fill:none;stroke:#000000;stroke-width:1.5;stroke-linecap:round;stroke-linejoin:round;stroke-miterlimit:10;}
	.st3{fill:#FFFFFF;stroke:#000000;stroke-width:1.5;stroke-linecap:round;stroke-linejoin:round;stroke-miterlimit:10;}
	.st4{fill:#F3B4B4;}
	.st5{fill:none;stroke:#000000;stroke-width:0.75;stroke-linecap:round;stroke-linejoin:round;stroke-miterlimit:10;}
	.st6{fill:#153177;stroke:#000000;stroke-width:1.5;stroke-linecap:round;stroke-linejoin:round;stroke-miterlimit:10;}
	.st7{fill:none;stroke:#000000;stroke-width:3;stroke-linecap:round;stroke-linejoin:round;stroke-miterlimit:10;}
	.st8{fill:#FFBA00;stroke:#000000;stroke-width:1.5;stroke-linecap:round;stroke-linejoin:round;stroke-miterlimit:10;}
	.st9{fill:#FFFFFF;stroke:#000000;stroke-width:1.5;stroke-miterlimit:10;}
	.st10{fill:none;stroke:#000000;stroke-width:1.5;stroke-miterlimit:10;}
	.st11{fill:#DB1C42;stroke:#000000;stroke-width:1.5;stroke-linecap:round;stroke-linejoin:round;stroke-miterlimit:10;}
	.st12{fill:#260F70;stroke:#000000;stroke-width:1.5;stroke-linecap:round;stroke-linejoin:round;stroke-miterlimit:10;}
	.st13{stroke:#000000;stroke-width:1.5;stroke-linecap:round;stroke-linejoin:round;stroke-miterlimit:10;}
	.st14{fill:#F4B5B5;}
	.st15{fill:none;stroke:#000000;stroke-width:0.5;stroke-linecap:round;stroke-linejoin:round;stroke-miterlimit:10;}
	.st16{fill:#E0A6A4;}
	.st17{fill:#012C81;stroke:#000000;stroke-width:1.5;stroke-linecap:round;stroke-linejoin:round;stroke-miterlimit:10;}
	.st18{fill:#77B4C9;stroke:#000000;stroke-width:1.5;stroke-linecap:round;stroke-linejoin:round;stroke-miterlimit:10;}
</style>
<rect height="1600.27" width="2400.41" class="st0"></rect>
<g>
	<path d="M655.62,837.03c1.2-0.19,2.39-0.08,3.56,0.26c-1.2-2.8-1.64-5.74,0.72-8.26c2.79-2.99,5.97-2.35,9.13-1.2
		c-0.21-0.88-0.32-1.75-0.34-2.6c-0.17-10.91,10.33-8.77,16.84-4.76c-0.68-3.52-0.66-6.4,0.41-7.88c5.42-7.6,14.17,0.75,20.02,8l0,0
		l0,0c0.7,0.87,1.35,1.71,1.98,2.52c2.2-0.51,4.37-0.83,6.47-0.7c17.43,1.19,16.99,38.18,14,57.28c-0.87,5.46-0.49,10.48,1.17,15.83
		c1.71,5.48,13.29,19.12,15.73,24.31c6.62,14.02,9.47,18.37,17.67,31.58l-44.43,18.25c0,0-16.37-47.21-25.22-61.87
		c-2.97-4.91-8.04-8.45-12.01-12.48c-4.46-4.54-9.39-9.11-13.49-13.98c-3.52-4.2-5.49-9.8-8.04-14.62
		C657.01,861.4,641.98,839.27,655.62,837.03z" class="st1"></path>
	<polyline points="720.98,873.29 719.53,832.06 708.16,827.09 705.34,820.24 693.5,813.65 668.89,840.36" class="st2"></polyline>
	<path d="M653.8,849.82c2.33,5.23,10.88,12.95,15.9,15.64c11.89,6.36,7.17-8.37,3.59-13.93
		c-3.39-5.25-10.58-15.15-17.93-13.79c-13.59,2.52,1.9,24.33,4.78,29.56c2.63,4.78,4.72,10.33,8.34,14.45
		c4.2,4.8,9.22,9.26,13.77,13.7c4.05,3.93,9.18,7.38,12.25,12.23c8.32,20.87,17.46,43.81,26.44,66.77" class="st2"></path>
	<path d="M670.88,829.09c-3.91-1.45-8.04-3.22-11.4,0.56c-3.59,4.03-0.4,8.9,1.98,12.8c3.8,6.21,8.69,12.76,14.75,16.88
		c4.7,3.2,11.31,4.76,11.55-2.86C688.01,847.55,680.03,837.06,670.88,829.09z" class="st3"></path>
	<path d="M687.93,822.69c-5.59-4.95-20.23-9.84-19.76,2.97c0.26,6.91,7.43,14.85,11.59,20.06
		c3.07,3.86,13.72,16.92,16.47,6.81C698.56,844.01,692.05,833.86,687.93,822.69z" class="st3"></path>
	<path d="M710.83,827.35c-3.39-4.63-18.22-25.65-25.69-14.7c-4.63,6.79,12.08,41.04,20.08,36.09
		c5.93-3.67-5.93-27.53-8.68-31.58" class="st3"></path>
	<path d="M698.36,881.47c-2.54-6.51,0.58-18.27,3.58-24.61c1.28-2.71,3.14-5.29,4.29-8c1.73-4.1,2.22-8.99,4.57-12.93
		c-4.52,4.76-13.06,5.08-18.86,3.16c-2.92-0.98-8.99-4.74-8.26-8.98c0.55-3.05,6.08-2.86,8.77-3.18c6.79-0.81,14.4-5.36,21.38-5.04
		c17.44,0.83,17.78,37.82,15.17,56.98c-1.43,10.5,2.5,17.44,7.66,26.12c5.55,9.33,10.93,18.76,16.24,28.25
		c5.51,9.84,10.93,19.72,16.37,29.58" class="st3"></path>
</g>
<path d="M707.13,946.38c-4.76-7.94-7.21-17.09-11.57-25.2c11.42-8.64,28.77-20.34,43.6-19.06l16.35,25.2" class="st3"></path>
<g>
	<path d="M1314.89,781.7c0,0-2.92-5.34,0.04-8.94c3.35-4.08,14.3-5.02,20.4-4.31c7.53,0.88,16.73,1.71,24.35,0.55
		c6.17-0.94,8.3,1.67,10.14,7.56c1.69,5.46,2.16,11.55,3.16,17.35c1.71,9.99,3.37,20,4.08,30.22c0.47,6.68,2.43,13.23,4.06,19.76
		c1.32,5.21,5.25,9.9,6.29,15.17c1.07,5.44-1.3,10.88-1.47,16.32c-0.21,7.15,0.98,14.6,1.45,21.73c1.98,29.58,5.85,55.57,8.64,85.1
		l-52.39-9.62c5.08-11.69,4.14-105.44-1.81-118.16c-1.43-3.07-6.42-6.36-8.92-8.41c-6.64-5.44-11.2-10.16-15.69-17.61
		c-4.4-7.3-8.56-14.58-13.81-21.32c-3.9-5.01-12.31-10.26-8.79-16.82c0.98-1.81,5.08-7.43,6.59-8.34c2.31-1.39,7.9,0.32,10.88-0.83
		c4.63-1.75,4.05,7.32,4.08,9.56c0.06,5.08-1.81,12.06-8.92,9.75" class="st3"></path>
	<path d="M1350.98,777.22c-6.02,2.79-16.77,3.24-23.03,4.91c-6.72,1.81-10.24,1.92-11.72,9.39" class="st2"></path>
	<path d="M1315.66,797.53c-1.58,4.35,2.84,9.82,7.04,10.76" class="st2"></path>
	<path d="M1354.15,784.62c-7.53,4.69-16.2,5.78-24.29,8.86c-3.42,1.32-6.79,1.77-7.13,5.53
		c-0.32,3.5-0.13,8.05,0.47,11.57c1,5.87,4.99,8.52,11.18,8.49c4.37-0.02,12.12-3.39,10.35-8.32c-4.37-2.69-7.34-2.11-11.99-1.15
		c5.83-0.43,9.73-3.52,15.15-5.68c-2.47,2.07-2.09,5.46-2.39,8.28c-0.4,3.69-1.79,5.33-4.44,7.83c-2.05,1.94-4.06,4.12-5.59,6.49
		c-3.67,5.65-1.83,9.22,1.15,15.22" class="st2"></path>
	<path d="M1357.85,795.27c2.65-1.39,5.59,1.92,7.51,3.44" class="st2"></path>
	<path d="M1360.11,779.89c2.75-0.75,3.84,1.45,5.19,3.27" class="st2"></path>
</g>
<path d="M1343.18,908.91c-0.7-8.58-1.24-15.17-1.84-23.75c5.16-3.78,17.44-6.27,23.8-6.49
	c14.06-0.53,21.3,2.28,27.96,4.82c1,10.52,1.67,16.92,2.3,27.44" class="st3"></path>
<path d="M1243.01,1106.52c-1.2-3.12-34.23-9.33-39.1-11.22c-13.89-5.34-28.36-12.61-37.65-24.63
	c-9.24-11.91-12.02-50.64-12.02-50.64c-3.1-12.83-65.54,2.24-82.1,11.65c1.64-0.87,11.33,32.24,4.1,42.42
	c-10.22,14.41-107.49-4.5-107.49-4.5l48.1,192.26l250.07-93.3C1266.92,1168.58,1243.03,1106.59,1243.01,1106.52z" class="st3"></path>
<path d="M1050.25,894.55c-7.81,7.19-14.09,16.01-17.93,26.06c-7.41,19.33-6.06,40.63-4.57,61.1
	c1.47,20.42,3.74,42.7,17.93,56.85c11.8,11.74,29.77,15.22,46.37,13.08c52.78-6.77,88.39-54.89,85.45-106.77
	c-1.92-34.04-30.43-63.45-63.15-69.68C1091.86,870.9,1067.38,878.8,1050.25,894.55z" class="st1"></path>
<path d="M1050.97,947.15c-9.99-9.95-23.47,0.21-23.47,0.21" class="st2"></path>
<path d="M1080.83,948.84c17.03-12.76,37.11,3.54,37.11,3.54" class="st2"></path>
<path d="M1046.26,964.26c-0.41,3.84-2.69,6.74-5.1,6.47c-2.39-0.26-4.01-3.58-3.59-7.41c0.41-3.84,2.69-6.74,5.1-6.47
	C1045.08,957.1,1046.68,960.42,1046.26,964.26z"></path>
<path d="M1098.22,967.13c-0.41,3.84-2.69,6.74-5.1,6.47c-2.39-0.26-4.01-3.58-3.59-7.41c0.41-3.84,2.69-6.74,5.1-6.47
	C1097.04,959.98,1098.63,963.3,1098.22,967.13z"></path>
<path d="M1053.9,951.46c3.35,7.38,0.79,17.75,0.06,25.5c-0.45,4.72-2.33,10.56,2.84,13.34" class="st2"></path>
<path d="M1120.75,1001.19c4.54-7.13,2.45-16.6-4.69-21.13c-7.13-4.54-16.6-2.45-21.13,4.69
	c-4.54,7.13-2.45,16.6,4.69,21.13C1106.75,1010.42,1116.21,1008.31,1120.75,1001.19z" class="st4"></path>
<path d="M1065.53,1025.19c10.39-2.65,14.55-16.43,16.96-25.16c-12.4,2.65-27.21,3.16-39.44-0.08
	c0,0,2.65,12.23,6.12,17.8C1052.47,1023.12,1058.74,1026.92,1065.53,1025.19z" class="st3"></path>
<path d="M1175.94,966.74c3.93-9.99,8.96-20.64,11.33-31.26" class="st5"></path>
<path d="M1174.36,975.41c3.09-4.2,7.66-7.85,9.31-12.93" class="st5"></path>
<g>
	<path d="M1029.38,998.9c3.29-0.55,6.34-2.39,8.28-5.42c3.65-5.72,1.96-13.32-3.76-16.97
		c-2.07-1.32-4.38-1.92-6.66-1.92c0.15,2.39,0.32,4.76,0.49,7.13C1028.14,987.38,1028.61,993.18,1029.38,998.9z" class="st4"></path>
</g>
<path d="M1177.5,944.87c-1.92-34.04-30.43-63.45-63.15-69.68c-22.47-4.27-46.97,3.61-64.09,19.38
	c-7.81,7.19-14.09,16.01-17.93,26.06c-7.41,19.33-6.06,40.63-4.57,61.1c1.47,20.42,3.74,42.7,17.93,56.85
	c11.8,11.74,29.77,15.22,46.37,13.08c4.22-0.55,8.3-1.34,12.29-2.39" class="st2"></path>
<path d="M1169.84,889.96c-9.69-23.22-34.81-44.77-90.87-29.37c-13.21,3.63-26.1,8.19-38.69,13.15
	c-6.81,2.69-11.65,4.01-17.44-0.72c-2.56,5.19-0.62,16.8,3.54,20.94c-2.69,0.17-4.54,0.83-6.49-0.79
	c-5.51,23.54,46.42,11.55,58.32,10.41c9.75-0.94,42.77-6.66,48.19,3.93c25.35-9.8,26.61,46.07,25.05,53.5
	c5.01,6.45,7.98,17.65,8.05,26.06c0.08,8.49-8.36,23.6-4.5,32.14c0,0,13.04-8.11,29.02-30.58c7.34-10.31,18.65-30.01,18.57-42.53
	C1202.45,923.21,1195.55,897.56,1169.84,889.96z" class="st6"></path>
<g>
	<path d="M1156.16,997.02c12.76-2.97,24.09-20.53,19.01-33.72c-4.55-11.82-21.28-10.27-25.48,0.96" class="st3"></path>
	<path d="M1154.24,978.93c-1.77-7.49,8.9-11.44,14.34-7.72" class="st2"></path>
	<path d="M1154.13,978.01c1.84-4.38,8.05-0.92,9.47,2.09" class="st2"></path>
</g>
<path d="M1158.55,897.75c8.56,4.12,13.15,12.63,13.23,22.15" class="st2"></path>
<path d="M1143.84,893.89c-4.1-9.35-18.14-10.48-26.65-9.52c-18.71,2.11-36.79,7.26-55.87,8.51" class="st2"></path>
<path d="M1147.11,886.71c-1.98-6.4-10.75-8.05-16.15-9.37c-10.14-2.47-21.25-0.6-31.46,1.79" class="st2"></path>
<path d="M1174.53,964.16c6.89-8.39,9.16-21,9.01-31.54" class="st2"></path>
<path d="M1176.32,974.96c4.55-6.89,12.8-11.22,14.41-19.82" class="st2"></path>
<path d="M1188.9,1156.84c-23.92,8.47-50.23,4.93-75.35,1.3c-24.93-3.61-46.88-8.66-71.81-12.27
	c1.02-22.96,6.08-47.25,10.12-69.87c7.19-2.52,17.75-8.98,24.93-11.5c9.62,12.27,18.33,27.81,32.14,35.06
	c21.15-8.34,38.67-20.57,56.21-35.06c0,0,16.75,17.61,25.35,24.84C1190.92,1111.51,1191.39,1134.78,1188.9,1156.84z" class="st3"></path>
<path d="M950.63,1454.16c-8.68-61.61-17.37-123.22-26.04-184.83c-4.2-29.77-6.94-60.67-17.61-88.76
	c-33.03-23.22-88.43-58.51-121.45-81.73c-10.61-7.47-21.53-14.06-28.15-25.22c-26.53-44.69-41.46-79.32-58.11-128.56
	c13.89-11.8,38.01-28.43,56.23-28.83c15.79,25.25,59.84,95.45,70.94,98.85c34.79,10.71,52.05,21.49,90.1,28.23
	c13.29,2.35,39.8,8.04,52.22,13.3c32.93,13.98,52.31,16.67,88.05,18.39c5.53,23.64,25.61,44.9,48.98,46.35
	c30.09,1.86,54.69-12.63,71.85-36.7c6.7,0.79,60.46,5.46,68.25,5.85c19.27,0.94,65.3-27.89,78.79-38.84
	c0.13-1.83-0.26-9.43,0.72-11.52c1.2-2.56,4.69-4.01,5.98-6.59c2.13-4.2,6.89-107.19,7.19-128.64c15.3-8.86,44.18-9.01,60.14-0.66
	c0.02,10.95,8.9,108.82,15.86,146.72c3.26,17.73,2.16,36.53-6.76,52.07c-3.82,6.64-10.86,12.98-16.35,18.65
	c-29.98,30.97-79.43,88.6-113.04,115.22c-5.27,4.18-2.58,11.93-3.58,18.76c-8.39,57.62-19.95,156.68-28.15,214.32" class="st6"></path>
<path d="M1163.14,1101.06c-33.08,69.1-86.71,128.68-143.28,180.95c10.75-9.92,10.76-29.64,12.8-42.94
	c7.87-51.24,8.17-111.38,34.12-157.6" class="st7"></path>
<g>
	
		<rect height="70.68" width="94.95" class="st3" transform="matrix(0.5938 -0.8046 0.8046 0.5938 -657.6224 1333.0232)" y="1282.5" x="943.97"></rect>
	
		<rect height="44.37" width="59.6" class="st8" transform="matrix(0.5938 -0.8046 0.8046 0.5938 -657.6317 1333.0199)" y="1295.66" x="961.64"></rect>
	
		<rect height="14.26" width="15.83" class="st8" transform="matrix(0.5938 -0.8046 0.8046 0.5938 -619.2194 1339.5529)" y="1275.93" x="1009.2"></rect>
</g>
<path d="M708.99,971.58c15.96-12.78,42.34-28.36,63.27-28.79" class="st5"></path>
<path d="M1336.85,930.31c16.09-6.36,46.5-6.47,63.29-0.47" class="st5"></path>
<path d="M1035.18,1073.08c7.79,33.31,36.11,63.3,69.06,65.35c42.43,2.63,77.12-17.82,101.32-51.73" class="st5"></path>
<path d="M1333.26,1050.69c6.68,4.63,13.74,10.95,21.81,12.89" class="st5"></path>
<path d="M1334.26,1038.79c15.3,6.04,30.28,10.73,46.59,12.89" class="st5"></path>
<path d="M819.71,1017.96c-8.99,10.2-14.62,22.92-23.79,32.72" class="st5"></path>
<path d="M916.74,1178.72c14.81-38.05,40.1-80.75,43.06-121.9" class="st5"></path>
<path d="M1246.02,1095.3c7.87,47.55,10.95,97.63,27.76,141.78" class="st5"></path>
<path d="M706.71,939.32c3.33,8.17,6.81,17.31,11.89,24.46" class="st5"></path>
<path d="M716.8,934.6c3.61,7.34,7.21,14.68,10.82,22.02" class="st5"></path>
<path d="M724.61,927.39c4.31,7.98,8.6,15.98,12.91,23.96" class="st5"></path>
<path d="M734.86,921.43c4.55,7.96,10.52,18.39,15.09,26.36" class="st5"></path>
<path d="M1039.15,1082.66c7.26,0.51,14.53,1.02,21.79,1.51" class="st5"></path>
<path d="M1045.1,1094.59c6.17-1.54,12.34-3.09,18.52-4.61" class="st5"></path>
<path d="M1052.36,1106.54c5.8-2.52,11.35-5.63,16.52-9.26" class="st5"></path>
<path d="M1061.53,1116.96c6.1-4.38,11.99-9.07,17.59-14.04" class="st5"></path>
<path d="M1077.52,1127.05c3.37-4.8,6.74-9.62,10.09-14.41" class="st5"></path>
<path d="M1088.59,1134.88c2.41-4.86,4.84-9.69,7.24-14.55" class="st5"></path>
<path d="M1103.9,1137.59c1.3-4.54,2.2-9.18,2.69-13.87" class="st5"></path>
<path d="M1119.13,1137.59c0-5.29,0-10.58,0-15.86" class="st5"></path>
<path d="M1137.08,1134.92c-1.35-4.84-2.69-9.67-4.05-14.53" class="st5"></path>
<path d="M1151.51,1130.32c-2.31-5.48-5.46-10.61-9.28-15.19" class="st5"></path>
<path d="M1164.72,1123.72c-4.35-4.52-8.32-9.39-11.89-14.55" class="st5"></path>
<path d="M1177.31,1115.74c-5.29-4.4-10.58-8.81-15.86-13.23" class="st5"></path>
<path d="M1188.38,1106.07c-5.34-3.73-11.01-7-16.9-9.77" class="st5"></path>
<path d="M1199.1,1096.53c-7.72-1.32-15.32-3.33-22.68-6" class="st5"></path>
<path d="M1349.03,901.03c-0.51,8.15-0.43,16.33,0.21,24.46" class="st5"></path>
<path d="M1359.58,899.01c0.45,8.15,0.9,16.3,1.35,24.44" class="st5"></path>
<path d="M1372.91,899.65c-0.17,8.6,0.3,17.24,1.43,25.76" class="st5"></path>
<path d="M1386.64,902.31c0.28,7.72,0.55,15.41,0.83,23.13" class="st5"></path>
<g>
	<path d="M1165.16,1064.48c-17.54,14.49-35.04,26.72-56.21,35.06c6.85,10.33,13.98,20.38,20.85,30.71
		c23.84-10.26,39.97-23.33,57.45-42.51l0.66-0.7C1178.95,1078.95,1165.16,1064.48,1165.16,1064.48z" class="st3"></path>
	<path d="M1074.15,1123c11.44-8.07,23.05-15.88,34.81-23.47c-13.81-7.24-22.53-22.79-32.14-35.06
		c-7.19,2.52-17.75,8.98-24.93,11.5c-0.09,0.53-0.19,1.05-0.28,1.58l0.23,1.17C1057.89,1094.04,1065.91,1108.76,1074.15,1123z" class="st3"></path>
</g>
<path d="M746.25,918.34c5.02,8.02,10.31,17.43,14.13,26.08" class="st5"></path>
<g>
	<path d="M168.36,366.35c-5.31,1.88-16.33-0.58-16.99-8.15c-0.28-3.22,3.35-3.73,6.19-4.8
		c3.48-1.32,14.62-1.79,17.35,1.11c4.22,4.44-4.18,19.29-6.19,23.9c-2.69,6.21-9.01,11.14-14.89,14.62
		c-5.21,3.09-10.52,5.23-15.94,7.72c-7.32,3.37-8.43,7.81-10.26,16.22c-2.77,12.72,2.8,160.42,2.8,160.42
		c-7.41-0.47-62.27,15.92-68.14,14.83c0.83-10.95,25.12-159.46,24.67-170.66c-0.24-6-0.47-7.62,1.51-13.38
		c1.96-5.7,0.88-12.33,0.3-18.46c-1.3-13.51,1.26-26.78,3.2-40.2c0.73-5.1,4.91-7.24,8.28-8.58c0.72-0.28,2.73-0.02,2.73-0.02
		c0.6-6.59,7.06-6.32,13.96-4.86c-2.65-9.67,13.81-2.79,16.3-2.58c4.14-3.22,11.1,0.77,15.09,2.35c4.23,1.67,11.4,2.11,12.08,7.38
		c0.4,3.05-0.72,9.58-0.72,9.58" class="st9"></path>
	<path d="M129.94,332.67c6.12,2.22,11.03,4.59,16.6,8.05c1.41,0.88,2.84,1.43,3.48,2.94c0.81,1.9,0.23,4.33-0.04,6.29
		c-0.72,5.33-1.73,11.33-4.03,16.09c-2.01,4.14-8.47,5.81-12.31,3.03" class="st10"></path>
	<path d="M145.54,367.03c2.84,1.71,8.39,1.84,10.35-1.49" class="st10"></path>
	<path d="M114.28,335.49c7.09,1.3,14.3,4.14,20.15,7.66c3.84,2.3,2.15,9.6,1.64,13.44
		c-0.53,3.99-0.96,10.03-3.05,13.42c-2.16,3.48-8.66,5.81-11.52,2.11" class="st10"></path>
	<path d="M101.66,340.81c3.12-0.26,7.15,1.32,9.86,2.75c3.33,1.75,6.96,4.06,9.79,6.53c1.71,1.49,1.24,3.37,1.26,5.57
		c0.04,3.82-0.24,7.53-0.75,11.29c-0.26,1.92-0.17,4.46-1.3,6.12c-1.26,1.83-4.7,2.13-6.77,2.09c-3.74-0.06-7.4-4.63-9.45-7.51
		c-1.02-1.43-1.62-2.99-0.38-4.33c0.62-0.68,1.88-1.39,2.65-0.94" class="st10"></path>
	<path d="M108.05,366.26c0.94-1.51-0.04-3.14-0.94-4.4c-0.66-0.9-6.61-7.21-9.63-8.56" class="st10"></path>
	<path d="M148.4,368.08c-11.74,1.98-20.4,5.44-26.36,16.65" class="st10"></path>
</g>
<path d="M1453.41,1002.94c4.23,22.96,1.05,49.7-29.6,50.87c16.32,2.62,32.42,4.5,44.2-11.1
	c-4.57,10.35-16.03,19.74-23.03,28.13c-11.8,14.13-14.28,26.8-8.45,44.77c14.79-4.27,30.45-2.5,45.43-7.38
	c15.98-5.21,25.29-12.29,32.08-27.68c9.15-20.72,6.23-44.84-2.43-65.73C1503.47,995.12,1471.14,973.59,1453.41,1002.94z" class="st6"></path>
<path d="M1648.33,1033.94c0,0-45.99,11.35-55.93-5.46c-4.86-8.2-12.1-39.44-12.63-42.53
	c-18.27,9.84-59.69,35.19-77.89,45.16c1.81-0.92,18.18,18.44,8.15,27.64c-11.14,10.24-75.76,21.3-75.76,21.3l17.43,201.22
	l274.16-97.44L1648.33,1033.94z" class="st3"></path>
<path d="M1443.89,1215.19c8.71,22,15.64,66.39,27.83,96.16c15.86,38.75,39.12,112.27,51.28,152.28l256.75-2.13
	c-4.55-35.34-20-134.36-22.81-170.04l39.52,46.09l9.65-128.55c-11.22-25.69-27.49-120.47-41.47-140.83
	c-16.94-24.69-18.61-47.74-61.2-42.79c-35.25,4.1-94.28,0.68-94.28,0.68c0,34.68-31.2,67.16-45.73,79.88
	c-4.35,74.54-9.45,93.17-9.45,93.17c-7.17-34.55-34.63-52.73-33.82-88.01c-18.48-11.87-24.9-38.18-25.42-48.78
	c-11.99,4.03-49.1,12.02-60.71,15.26c-19.46,5.42-34.83,20.02-33.5,40.18c0.53,7.88-0.4,41.87-0.08,49.87
	c3.41,86,14.58,116.88,14.58,158.24l56.13-15.9" class="st11"></path>
<path d="M1609.15,787.33c-5.53-22.04-26.38-122.73-29.56-134.08c-1.37-4.93,1.43-19.68-0.06-24.63
	c11.31-1.73,16.97-1.77,28.74-3.12c0.4,19.87,75.12,143.69,73.2,168.91c-1.39,18.27-7.98,42.43-20.72,42
	C1633.14,835.48,1614.64,809.25,1609.15,787.33z" class="st3"></path>
<polygon points="1580.77,487.03 1600.55,678.03 1744.68,709.25 1728.38,442.22" class="st3"></polygon>
<polygon points="1562.59,486.43 1592.02,676.21 1737.54,700.09 1707.76,434.23" class="st3"></polygon>
<path d="M1573.92,582.61c2.07-3.05,2.16-9.37,1.77-12.93c3.44-1,4.95-3.71,8.6-4.42c3.73-0.73,7.45-1.35,11.01-2.75
	c3.74-1.47,11.35-9.41,4.44-10.37c-5.85-0.81-13.83-1.52-19.63-0.09c-5.14,1.32-9.48,3.29-13.81,5.65
	c-3.95,2.13-5.01,4.12-5.57,8.24c-1.24,9.11,0.85,20.74-5.25,28.55c-2.07,2.65-4.18,4.7-3.93,8.17c0.24,3.37,2.31,5.91,4.5,8.17
	c-4.97,5.27-2.35,8.36,2.43,12.53c-2.07,3.22-1.05,7.11,0.87,10.07c1.45,2.26,3.63,3.86,5.66,5.53c5.66,4.67,11.44,12.01,18.1,15.68" class="st3"></path>
<path d="M1566.53,587.35c7.38-4.74,15.56-9.09,19.8-10.11c3.39-0.81,20.62-4.69,24.18-4.85
	c3.78-0.19,12.36-0.58,14.4,1.69c5.25,5.89-12.87,12.85-16.16,13.53c-14.96,3.07-27.98,9.99-42.15,15.47" class="st3"></path>
<path d="M1567.86,619.25c6.83-1.6,19.12-7.09,25.61-10.11c4.86-2.26,9.48-4.1,14.58-5.89
	c6.72-2.35,14.64-3.82,19.08-9.92c2.09-2.86,4.93-9.16-0.3-9.97c-3.14-0.49-9.24,2.8-12.74,3.69c-5.4,1.37-10.76,2.39-16.22,3.78
	c0,0-19.57,6.91-28.66,11.23" class="st3"></path>
<path d="M1581.51,640.47c5.01-3.54,5.21-6.91,8.02-11.37c1.66-2.62,3.59-4.03,6.38-5.19c4.57-1.92,9.13-3.9,13.68-5.65
	c6.13-2.35,12.38-4.4,16.79-9.63c3.86-4.59,1.83-8.15-3.73-7.64c-10.75,1-19.95,4.87-30.09,8.37c0,0-16.71,8.28-22,9.2" class="st3"></path>
<path d="M412.13,743.93c-6.19,16.9-7.87,37.05-2.56,54.38c-17.95,0.04-31.65-15.88-33.46-32.89
	c-1.24,10.56,2.33,19.59,4.01,29.53c-11.08-7.36-21.49-22.64-20.44-36.26c1-12.95,8.24-23.33,19.36-29.69
	C393.24,720.88,411.27,721.13,412.13,743.93z" class="st6"></path>
<path d="M1888.92,1230.55L1888.92,1230.55C1888.92,1230.46,1888.92,1230.44,1888.92,1230.55z" class="st12"></path>
<path d="M2012.25,1567.79c-0.55-65.84-2.56-195.07,0.02-218.67c2.86,6.29,4.82,14.36,7.04,20.68
	c11.27,32.07,64.47,199.72,64.47,199.72l111.23-1.62c-9.54-124.14-18.4-179.64-25.61-226.38c-12.82-83.19-23-135.85-47.53-203.33
	l-245.5,60.22c-0.28,2.33-1.47,69.78,1.67,151.01c2.35,60.95,18.74,219.79,18.74,219.79L2012.25,1567.79z" class="st6"></path>
<path d="M2177.98,1568.13c-9.54-124.14-18.4-179.64-25.61-226.38c-12.82-83.19-23-135.85-47.53-203.33" class="st5"></path>
<path d="M2031.01,1358.49c0,0,34.14,6.91,48.61,12.72" class="st5"></path>
<path d="M2018.97,1346.66c24.76,3.22,68.46,3.63,92.89,8.62" class="st5"></path>
<path d="M2012.91,1353.17c-7.64-31.54-9.6-138.09-9.6-138.09" class="st5"></path>
<path d="M2007.62,1338.04c-28.02-21.94-32.25-89.08-31.14-125.27" class="st5"></path>
<path d="M2087.77,1226.56c0,0,6.62,32.08,15.11,52.16c8.15,19.29,33.59,37.82,45.99,40.85" class="st5"></path>
<line y2="1357.72" x2="1964.28" y1="1353.49" x1="2002.22" class="st5"></line>
<path d="M1912.61,1233.9c-3.59,45.05-10.86,71.08-32.35,74.97" class="st5"></path>
<g>
	<path d="M1872.32,1203.19c4.18,1.71,19.23,4.54,50.38,7.26c19.82,1.73,151.01-1.54,222.9-15.98l6.53,28.17
		c-13.32,4.86-136.96,16.86-168.1,15.96c-38.65-1.13-73.67-0.58-110.78-8.28L1872.32,1203.19z" class="st13"></path>
	<path d="M1933.38,1204.73c0.02,13.15,1.64,26.21,0.85,39.31c-3.09-0.08-5.66-0.3-8.75-0.73
		c-0.64-8.19-2.39-16.32-2.9-24.9c-0.19-3.39-0.73-11.25,0.08-14.28C1922.66,1204.11,1929.9,1205.03,1933.38,1204.73z" class="st6"></path>
	<path d="M2049.02,1202.04c1.54,13.12,1.49,26.23,3.84,39.22c3.07-0.3,5.61-0.73,8.62-1.41
		c-0.34-8.2,0.45-16.43-0.09-25.03c-0.21-3.39-0.6-11.25-1.77-14.23C2059.62,1200.59,2052.52,1202.06,2049.02,1202.04z" class="st6"></path>
	<path d="M2024.24,1212.09c-0.04-1.73-1.24-3.12-2.71-3.09l-52.86,0.9c-1.45,0.02-2.62,1.45-2.6,3.18l0.45,26.67
		c0.04,1.73,1.24,3.12,2.71,3.09l52.86-0.9c1.45-0.02,2.62-1.45,2.6-3.18L2024.24,1212.09z M2012.25,1234.28l-33.42,0.56
		c-0.92,0.02-1.69-0.72-1.69-1.62l-0.24-14.02c-0.02-0.9,0.73-1.66,1.66-1.67l33.42-0.56c0.92-0.02,1.69,0.72,1.69,1.62l0.24,14.02
		C2013.91,1233.52,2013.17,1234.28,2012.25,1234.28z" class="st8"></path>
	<path d="M1984,1223.68c-3.91,0.3-7.34,0.09-11.12-0.24c-0.11,1.04-0.87,4.65,0.09,5.44c0.85,0.7,5.59,0.32,6.76,0.19
		C1981.95,1228.78,1991.29,1225.81,1984,1223.68z" class="st8"></path>
</g>
<g>
	<g>
		<path d="M1326.14,1147.75c-4.5-8.13-12.01-17.22-11.03-27.44c0.53-5.42,6-9.09,11.16-11.37
			c2.18-4.48,6.91-9.26,11.69-11.99c0,0,3.69-6.77,5.74-8.77c1.49-1.43,3.42-2.07,5.44-2.6c0.08-1.83,1.35-4.12,2.52-5.57
			c-1.43-3.58-0.11-4.87,2.77-4.82l0.53-0.47c3.35-2.13,8.75-1.98,11.05,1.98l0.08,0.21c3.42,0.3,6.87,0.66,9.5,1.81
			c6.61,2.92,7.87,15.94,10.01,22.07c3.74,10.73,2.77,22.92,2.2,34.19c-0.47,9.09-4.86,18.03-4.52,27.08
			c0.34,9.05,22.15,89.01,24.29,98.04l-42.62,23.32c-0.17-15.02-15.07-84.74-18.52-99.21c-0.83-3.46-5.16-11.01-6.83-14.15
			C1335.57,1162.5,1330.34,1155.31,1326.14,1147.75z" class="st1"></path>
	</g>
	<path d="M1407.66,1260.09c-2.15-9.01-23.96-88.99-24.29-98.04c-0.34-9.07,4.05-17.99,4.52-27.1
		c0.58-11.29,1.54-23.47-2.2-34.19c-2.15-6.13-3.41-19.16-10.01-22.07c-4.65-2.07-11.93-1.54-16.97-2.84
		c-6.34-1.64-9.88-0.68-5.74,6.57c3.74,6.53,15.83,12.61,21.73,4.14" class="st2"></path>
	<path d="M1365.32,1090.41c-1.88,2.75,0.51,7.58,1.51,10.22c1.83,4.87,2.9,6.47,0.68,11.31
		c-4.06,8.88-9.3,21.38-4.05,33.16" class="st2"></path>
	<path d="M1338.08,1096.92c0,0,3.69-6.77,5.74-8.77c2.75-2.65,7.04-2.62,10.5-4.06" class="st2"></path>
	<path d="M1368.73,1107.86c-0.72,4.87-2.16,6.25-5.91,7.3" class="st2"></path>
	<path d="M1326.39,1108.91c2.8-5.76,9.84-12.06,15.79-13.77c3.12-0.9,7-2.58,9.8-0.43c2.3,1.75,3.41,4.91,4.76,7.32
		c1.98,3.46,4.18,6.96,5.31,10.84c1.41,4.86-3.78,12.44-9.71,11.46" class="st2"></path>
	<path d="M1349.23,1085.57c0.08-1.92,1.49-4.37,2.69-5.8" class="st2"></path>
	<path d="M1355.05,1074.7c3.35-2.13,8.75-1.98,11.05,1.98" class="st2"></path>
	<path d="M1337.91,1123.27c-0.53,2.62-1.77,3.24,0.21,4.97c1.04,0.9,3.16,1.17,4.46,1.26c3.03,0.21,6.92-0.66,8.86-3.2
		c3.71-4.89-3.05-15.62-6.51-19.06c-3.82-3.8-10.31-1.34-14.81,0.23c-5.83,2.01-14.25,6.06-14.9,12.83
		c-0.98,10.22,6.53,19.31,11.03,27.44c4.18,7.56,9.43,14.75,13.45,22.32c1.67,3.14,6,10.71,6.83,14.15
		c3.44,14.45,18.35,84.19,18.52,99.21" class="st2"></path>
	<path d="M1341.84,1126.13c-3.67-1.39-5.4-4.87-6.38-8.51" class="st2"></path>
	<path d="M1337.77,1122.76c-3.46,1.15-8.96,0.68-12.29-0.32" class="st2"></path>
	<path d="M1337.23,1124.25c-3.16,3.5-7.73,4.5-12.18,5.08" class="st2"></path>
</g>
<g>
	<path d="M2198.34,497.45c0,0-4.03-4.93-1.68-9.2c2.67-4.86,13.76-7.9,20.14-8.34c7.9-0.53,17.52-1.45,25.14-4.1
		c6.17-2.16,8.86,0.13,11.87,5.83c2.8,5.29,4.46,11.46,6.59,17.24c3.67,9.95,7.32,19.93,9.99,30.3c1.75,6.77,5.04,13.14,7.98,19.53
		c2.35,5.12,7.3,9.16,9.37,14.4c2.15,5.38,0.75,11.42,1.64,17.05c1.17,7.38,3.8,14.83,5.66,22.07
		c7.7,30.03,33.93,103.03,42.47,132.86l-69.38-17.52c2.97-13-24.24-131.91-27.94-144.33c-0.75-2.5-1.24-4.99-2.78-7.08
		c-2.11-2.86-5.23-4.38-8.2-6c-7.88-4.31-13.47-8.3-19.51-15.09c-5.93-6.66-11.61-13.34-18.31-19.27
		c-4.97-4.4-14.62-8.19-12.27-15.62c0.66-2.05,3.8-8.62,5.18-9.82c2.13-1.88,8.19-1.19,11.03-2.94c4.42-2.69,5.57,6.74,6.02,9.05
		c1.04,5.21,0.45,12.74-7.3,11.72" class="st3"></path>
	<path d="M2234.59,485.92c-5.65,4.01-16.62,6.55-22.73,9.47c-6.55,3.14-10.16,3.95-10.24,11.91" class="st2"></path>
	<path d="M2202.16,513.58c-0.79,4.76,4.82,9.56,9.3,9.71" class="st2"></path>
	<path d="M2239.25,492.92c-6.83,6.27-15.56,9.05-23.28,13.77c-3.27,2.01-6.64,3.12-6.29,7.06
		c0.34,3.67,1.41,8.3,2.71,11.8c2.15,5.85,6.76,7.81,13.12,6.59c4.48-0.87,11.8-5.8,9.03-10.54c-5.01-1.94-7.96-0.77-12.55,1.11
		c5.91-1.56,9.33-5.49,14.49-8.75c-2.15,2.62-1.11,6-0.87,8.96c0.3,3.88-0.81,5.81-3.05,8.9c-1.73,2.39-3.39,5.02-4.52,7.75
		c-2.69,6.51-0.11,9.84,4.1,15.45" class="st2"></path>
	<path d="M2245.12,503.16c2.47-1.94,6.12,0.9,8.39,2.11" class="st2"></path>
	<path d="M2244.48,486.92c2.67-1.32,4.22,0.75,5.97,2.37" class="st2"></path>
</g>
<path d="M2113.75,771.18c-14.57,7.83-71.47-17.67-81.2-34.14c-4.76-8.05-11.86-38.67-12.38-41.68
	c-17.91,9.65-58.51,34.49-76.34,44.28c1.77-0.9,12.93,32.12,3.1,41.14c-10.93,10.03-69.38,6.83-69.38,6.83l17.09,197.25l268.74-95.5
	L2113.75,771.18z" class="st3"></path>
<path d="M240.96,761.58c14.57,7.83,34.76,17.24,44.5,0.77c4.76-8.05,13.85-42.64,14.36-45.65
	c17.91,9.65,58.51,34.49,76.34,44.28c-1.77-0.9-12.27,35.42-3.1,45.11c10.54,11.12,65.98,42.25,65.98,42.25l-13.68,157.88
	L156.62,910.7L240.96,761.58z" class="st3"></path>
<path d="M2256.58,735.09c-88.56,36.09-121.6,22.3-162.4,33.16c-17.73-10.86-47.57-23.28-47.57-23.28
	c-13.81,28-32.08,53.78-58.39,76.16c-19.38-8.39-37.35-55.42-37.35-55.42s-35.64,15.73-35.55,16.01
	c-0.06-1.09-83.83,4.37-91.79,4.72c-24.95,1.13-136.68-14.34-136.68-14.34c-22.19,13.32-38.8,50.68-40.38,75.72
	c0,0,79.75,31.03,94.58,36.64c20.87,7.87,95.31,36.04,103.86,50.77c0.64,1.09,15.36,94.94,18.95,126.02
	c5.27,45.63,8.81,91.32,12.5,137.13c0,0,92.34,18.05,262.44-8.34c0,0,51.66-273.05,53.93-279.43
	c43.94-36.53,74.27-55.33,124.67-96.08c8.69-7.02,13.02-18.27,15.88-29.07c2.86-10.8,3.27-22.09,3.65-33.25" class="st3"></path>
<path d="M1645.45,835.35c0,0,79.75,31.03,94.58,36.64c20.87,7.87,95.31,36.04,103.86,50.77" class="st5"></path>
<path d="M2122.41,1192.48c0,0,58.83-294.2,61.08-300.58" class="st5"></path>
<path d="M1920,580.31c-8.05,7.51-14.51,16.69-18.46,27.14c-7.58,20.1-6.04,42.19-4.38,63.42
	c1.66,21.17,4.14,44.28,18.95,58.86c12.31,12.12,30.97,15.6,48.19,13.29c54.72-7.36,91.36-57.47,88.01-111.29
	c-2.2-35.3-31.95-65.66-65.94-71.92C1963.04,555.53,1937.67,563.86,1920,580.31z" class="st1"></path>
<path d="M1927.08,641.09c-10.86-9.82-24.29,1.39-24.29,1.39" class="st2"></path>
<path d="M1958.11,641.38c17.01-14.08,38.63,1.81,38.63,1.81" class="st2"></path>
<path d="M1922.9,659.06c-0.23,3.86-2.37,6.87-4.78,6.72s-4.18-3.39-3.95-7.24c0.23-3.86,2.37-6.87,4.78-6.72
	C1921.38,651.97,1923.15,655.21,1922.9,659.06z"></path>
<path d="M1976.89,659.42c-0.23,3.86-2.37,6.87-4.78,6.72c-2.41-0.15-4.18-3.39-3.95-7.24s2.37-6.87,4.78-6.72
	C1975.35,652.33,1977.12,655.58,1976.89,659.42z"></path>
<path d="M1930.34,645.42c3.84,7.49,1.71,18.35,1.34,26.42c-0.23,4.91-1.9,11.07,3.61,13.68" class="st2"></path>
<path d="M2002.11,693.61c4.35-7.62,1.71-17.31-5.91-21.68c-7.62-4.35-17.31-1.71-21.68,5.91
	c-4.35,7.62-1.71,17.31,5.91,21.68C1988.07,703.87,1997.76,701.22,2002.11,693.61z" class="st14"></path>
<path d="M1899.66,695.18c5.85,2.45,12.74,0.26,15.98-5.38c3.5-6.12,1.37-13.91-4.74-17.41
	c-4.52-2.58-9.92-2.07-13.85,0.81C1897.48,680.57,1898.21,688.01,1899.66,695.18z" class="st14"></path>
<path d="M2052.31,631.74c-2.2-35.3-31.95-65.66-65.94-71.92c-23.33-4.31-48.7,4.03-66.37,20.49
	c-8.05,7.51-14.51,16.69-18.46,27.14c-7.58,20.1-6.04,42.19-4.38,63.42c1.66,21.17,4.14,44.28,18.95,58.86
	c12.31,12.12,30.97,15.6,48.19,13.29c4.37-0.58,8.62-1.45,12.74-2.56" class="st2"></path>
<path d="M1946.09,721.24c10.63-3.27,14.25-17.75,16.3-26.93c-12.72,3.37-28.04,4.65-40.87,1.9
	c0,0,3.37,12.53,7.23,18.14C1932.46,719.75,1939.14,723.38,1946.09,721.24z" class="st3"></path>
<path d="M1988.22,821.13c0,0-15.52,289.03-14.41,383.25" class="st2"></path>
<path d="M1841.8,791.54c0.94,48.57-5.98,91.4,3.74,138.78" class="st5"></path>
<path d="M2048.25,576.34c14.6,18.67,17.44,42.21,17.88,64.88c0.53,27.32-19.04,53.71-41.81,70.77
	c12.34-21.73,14.66-54.2-6.85-68.78c-22.79-15.43-32.4-11.69-70.47-42.11c3.44,7.88,21.49,21.98,21.49,21.98s-7.49-1.32-17.93-7.4
	c-12.14-7.08-24.52-17.8-29.15-28.87c-12.85,5.23-23.69,40.82-25.59,52.56c-15.3-28.13,17.14-79.43,46.61-77.94
	C1968.42,538.91,2024.84,546.4,2048.25,576.34z" class="st6"></path>
<g>
	<path d="M2030.5,685.96c13.23-3.16,24.86-21.45,19.51-35.1c-4.8-12.23-22.13-10.52-26.42,1.15" class="st3"></path>
	<path d="M2028.42,667.23c-1.88-7.75,9.16-11.93,14.83-8.09" class="st2"></path>
	<path d="M2028.28,666.27c1.88-4.57,8.34-1,9.82,2.11" class="st2"></path>
</g>
<path d="M1922.15,796.89c0,0-49.83,0.64-80.24,6.93" class="st5"></path>
<path d="M1993.53,864.14h-12.34c0,0-19.68,104.84-123.22,274.61l6.42,59.62l62.81-24.24
	C1927.17,1174.13,1982.78,1083.77,1993.53,864.14z" class="st11"></path>
<path d="M1971.26,834.96c0,0,9.6-11.95,15.62-13.64c6.04-1.71,17.07,6.21,20.72,11.03l-13.15,36.15
	c0,0-4.31-2.16-8.2-2.16s-6.4,2.16-6.4,2.16L1971.26,834.96z" class="st11"></path>
<path d="M1933.33,580.07c18.99,4.63,35.77,17.69,50.38,31.18" class="st5"></path>
<path d="M1933.18,572.73c11.07-1.64,20.47,2.26,29.26,8.9" class="st5"></path>
<path d="M2050.36,666.67c10.58-20.89,8.71-46.69,0.24-67.76" class="st5"></path>
<path d="M2049.06,650.24c-0.24-12.91,1.58-20.98-5.46-32.29" class="st5"></path>
<path d="M2036.22,640.04c-9.11-17.22-19.65-42.91-41.12-48.74" class="st5"></path>
<path d="M1950.58,555.83c-8.17,3.44-22.39,19.14-27.64,26.31" class="st5"></path>
<path d="M406.09,765.03c4.31,11.4,9.11,20.81,16.79,30.28" class="st2"></path>
<path d="M316.95,604.57c21.26-27.61,58.39-34.64,94.35-19.06c7.9,3.42,15.47,7.68,22.49,12.68
	c21.85,15.58,37.07,39.61,33.29,67.26c-3.73,27.21-18.16,45.13-5.95,71.92c-9.94,5.4-15.07,2.26-22.02,11.18
	c-5.72,7.36-5.97,21.73-15.64,25.12c-0.08,0.02,0.08-0.04,0,0c-14.62,5.98-51.34-8.41-68.87-18.31
	c-40.82-23.07-63.87-75.18-51.98-120.81C305.74,622.78,310.65,612.77,316.95,604.57z" class="st1"></path>
<path d="M453.4,687.14c-12.76-15.22-34.49-4.69-34.49-4.69" class="st2"></path>
<path d="M433.42,700.01c-0.47,3.84,1.09,7.17,3.48,7.47c2.39,0.3,4.72-2.58,5.19-6.4c0.47-3.84-1.09-7.17-3.48-7.47
	C436.22,693.31,433.89,696.17,433.42,700.01z"></path>
<path d="M399.54,714.69c0.6-7.87,7.47-13.76,15.34-13.15s13.76,7.47,13.15,15.34s-7.47,13.76-15.34,13.15
	C404.83,729.42,398.94,722.56,399.54,714.69z" class="st14"></path>
<path d="M419.51,741.6c5.78,3.1,20.47,5.93,20.47,5.93c-3.88,5.53-5.72,12.23-8.84,18.76
	C430.74,766.1,415.11,762.28,419.51,741.6z" class="st3"></path>
<path d="M312.81,711.6c-12.46-23.48-16.86-51.3-10.16-77.04c3.07-11.78,7.98-21.79,14.3-30
	c21.26-27.61,58.39-34.64,94.35-19.06c7.9,3.42,15.47,7.68,22.49,12.68c21.85,15.58,37.07,39.61,33.29,67.26
	c-3.73,27.21-18.16,45.13-5.95,71.92c-9.94,5.4-15.07,2.26-22.02,11.18c-5.72,7.36-5.97,21.73-15.64,25.12c-0.08,0.02,0.08-0.04,0,0
	c-11.93,4.89-38.6-3.8-57.53-12.55" class="st2"></path>
<path d="M410.99,580.22c0,0-6.61-4.7-9.48-6.32c-3.42-1.9-7-3.52-10.71-4.8c-7.09-2.45-14.57-3.65-22.05-3.65
	c-15.56,0.02-30.77,5.21-44.07,13.1c-23.77,14.08-42.3,36.7-51.24,62.85c-8.96,26.25-8.19,76.48,8.96,100.21
	c1-18.57-1.58-40.67,7.62-51.73c-5.66,21.13-1.73,34.78,11.95,52.73c8.17,10.71,28,30.62,28,30.62
	c-4.27-16.24-0.09-41.61,6.38-57.55c-4.01,14.13-0.51,36.62,9.47,47.85c-2.39-39.33,6.94-64.92,23.09-92.06" class="st6"></path>
<path d="M355.55,700.18c-5.19,14.11-10.43,43.21,4.27,52.88" class="st2"></path>
<g>
	<path d="M1685.74,1197.49c2.28,18.78,4.86,35.96,4.74,58.83c0,0-17.2,20.25-23.56,27.4
		c-14.72-6.47-38.69-19.1-38.69-19.1c-11.06-28.75-14.53-56.79-14.53-56.79L1685.74,1197.49z" class="st5"></path>
	<path d="M1678.44,1198.39c1.81,14.98,4.91,37.05,4.82,55.29c0,0-13.72,16.15-18.8,21.85
		c-11.74-5.16-30.86-15.22-30.86-15.22c-8.83-22.94-12.61-53.67-12.61-53.67" class="st5"></path>
	<line y2="1214.35" x2="1686.4" y1="1224.28" x1="1617.15" class="st5"></line>
</g>
<g>
	<path d="M610.34,850.93c0-3.18,5.33-4.91,7.77-3.84c2.71,1.19,6.83,4.35,9.03,6.29c7.77,6.89,12.4,11.52,21.77,18.99
		c3.12,2.48,7.45,6.23,7.53,10.54c0.06,3.09-2.35,5.57-4.1,7.88c-2.24,2.95-5.01,5.31-7.41,8.13c-6.89,8.05-13.47,17.44-18.76,26.61
		c-2.63,4.57-4.82,10.2-6.87,15.11c-2.33,5.61-1.43,9.9-2.54,15.58c-1.09,5.55-5.08,10.97-7.24,16.22
		c-2.95,7.17-4.74,14.72-6.55,22.36c-5.91,24.93-20.85,103.86-28.53,128.3l-39.5-73.07c10.43-14.75,29.75-65.45,32.52-72.41
		c6.49-16.33,10.12-32.27,12.61-43.19c2.69-11.89-3.24-23.11-1.32-34.19c1.81-10.46,4.35-19.29,7.13-29.47
		c1.26-4.61,1.66-9.94,3.73-13.93c2.48-4.76,7.79-4.33,12.97-5.59c5.74-1.39,12.38-0.98,6.59,5.93c-4.05,4.82-11.86,7.21-17.46,9.35" class="st3"></path>
	<path d="M588.1,927.92c0.51-14.28,27.74-26.76,22.43-39.65" class="st2"></path>
	<path d="M600.88,878.54c2.86,1.84,7.94,6.42,9.58,9.62c1.2,2.35,0.94,4.65-0.21,6.79c-1.96,3.63-4.1,1.98-6.91-0.36
		c-3.82-3.16-8.6-8.17-10.91-12.66c-2.5-4.87,1.17-10.56,3.76-14.98c1.79-3.05,2.82-3.93,6.32-2.43
		c7.21,3.12,13.96,7.96,21.19,11.29" class="st2"></path>
	<path d="M608.26,858.35c3.67-2.82,7.79,0.28,10.97,2.35c7.24,4.72,12.51,9.18,19.23,13" class="st2"></path>
	<path d="M648.73,878.16c2.15,0.73,2.41,4.12,1.24,5.72" class="st2"></path>
	<path d="M635.86,881.95c0.83,2.41,1.64,4.1-0.6,5.8" class="st2"></path>
	<path d="M622.24,886.8c1.56,0.6,0.92,4.4,0,5.57" class="st2"></path>
</g>
<path d="M1470.31,1307.72c-6.79,11.61-19.61,35.23-26.93,43.47c-9.39,10.58-27.08,13.51-39.89,5.48
	c-23.5-14.73-40.03-48.06-45.67-78.85c-9.54-52.01-9.54-52.01-9.54-52.01s14.32-13.02,59.3-23.88c0,0,29.86,76.57,36.56,103.74" class="st11"></path>
<path d="M1353.84,1251.49c0,0,14.96-13.64,61.95-25.05" class="st5"></path>
<path d="M2034.74,821.13c-21.77,67.67-63.13,136.34-111.69,188.29c3.84-61.76,10.54-129.41,18.2-190.72" class="st7"></path>
<g>
	
		<rect height="69.29" width="93.08" class="st3" transform="matrix(0.4666 -0.8845 0.8845 0.4666 89.3882 2241.8115)" y="1012.15" x="1856.78"></rect>
	
		<rect height="43.49" width="58.41" class="st8" transform="matrix(0.4666 -0.8845 0.8845 0.4666 89.3906 2241.8223)" y="1025.06" x="1874.12"></rect>
	
		<rect height="13.98" width="15.51" class="st8" transform="matrix(0.4666 -0.8845 0.8845 0.4666 133.0718 2239.2998)" y="1002.33" x="1915.32"></rect>
</g>
<path d="M1988.22,821.13c16.2-1.32,41.16,39.71,41.16,39.71s36.77-39.71,64.81-92.58" class="st3"></path>
<path d="M1915.34,781.72c5.61,10.41,26.63,65.11,37.37,77.68c0,0,25.2-37.43,35.53-38.28" class="st3"></path>
<path d="M2046.61,744.97c-13.81,28-32.08,53.78-58.39,76.16c-19.38-8.39-37.35-55.42-37.35-55.42" class="st2"></path>
<g>
	<path d="M1773.13,1061.81c0,0-2.69-5.63,0.53-9.15c3.67-4.01,14.92-4.37,21.11-3.29c7.66,1.32,17.03,2.67,24.9,1.88
		c6.38-0.62,8.41,2.16,9.97,8.3c1.45,5.68,1.6,11.95,2.3,17.93c1.2,10.33,2.37,20.66,2.54,31.16c0.11,6.87,1.77,13.68,3.09,20.46
		c1.05,5.42,4.84,10.43,5.61,15.88c0.81,5.63-1.94,11.07-2.39,16.64c-0.6,7.3,0.21,15,0.3,22.36c0.41,30.39,2.97,57.23,4.22,87.62
		l-53.14-12.7c5.83-11.7,9.99-107.75,4.59-121.11c-1.3-3.24-6.21-6.87-8.68-9.11c-6.51-5.93-10.91-11.01-15.11-18.89
		c-4.1-7.72-7.98-15.39-12.98-22.58c-3.73-5.34-12.04-11.18-8.07-17.71c1.09-1.81,5.61-7.34,7.19-8.17c2.45-1.3,8.07,0.75,11.2-0.24
		c4.84-1.54,3.74,7.72,3.65,10.01c-0.21,5.21-2.52,12.25-9.67,9.48" class="st3"></path>
	<path d="M1810.33,1059.19c-6.3,2.52-17.35,2.39-23.84,3.78c-6.98,1.49-10.59,1.41-12.51,9" class="st2"></path>
	<path d="M1773.05,1078.07c-1.86,4.37,2.37,10.22,6.61,11.4" class="st2"></path>
	<path d="M1813.16,1066.93c-7.96,4.4-16.92,5.02-25.37,7.75c-3.58,1.17-7.06,1.45-7.6,5.27
		c-0.53,3.58-0.56,8.24-0.15,11.87c0.7,6.06,4.63,8.99,10.99,9.3c4.46,0.21,12.59-2.8,11.05-7.96c-4.33-2.99-7.4-2.56-12.21-1.84
		c5.98-0.11,10.16-3.07,15.83-4.99c-2.65,1.99-2.45,5.48-2.9,8.34c-0.6,3.76-2.13,5.36-4.97,7.77c-2.2,1.88-4.38,4.01-6.08,6.36
		c-4.06,5.57-2.37,9.35,0.34,15.66" class="st2"></path>
	<path d="M1816.37,1078.05c2.8-1.28,5.61,2.28,7.51,3.95" class="st2"></path>
	<path d="M1819.52,1062.43c2.86-0.62,3.86,1.69,5.14,3.65" class="st2"></path>
</g>
<path d="M1782.69,1322.1c-6.7-40.8,10.52-72.19,8.69-118.25c0,0,31.43-10.26,63.04,4.18c0,0,8.36,150.32-30.54,149.72
	c-27.55-0.43-41.93-24.48-57.23-45.35c-26.83-36.58-38.58-82.93-60.59-130.71" class="st11"></path>
<path d="M1789.58,1229.04c0,0,31.43-10.26,63.04,4.18" class="st5"></path>
<path d="M1550.68,1185.78c10.29,35.3,18.63,59.9,20.61,93.38c-5.81,1.24-11.7,1.56-17.52,0.34
	c-5.66-42.53-10.2-74.76-33.59-110.74c-9.37-14.41-15.98-31.03-16.58-47.95" class="st5"></path>
<path d="M1548.35,1181.66c10.33,31.31,20.96,64.04,22.94,97.5" class="st2"></path>
<path d="M1563.12,1131.25c40.7-20.38,67.39-60.73,74.58-104.1" class="st5"></path>
<path d="M1523.15,1130.7c-13.04-3.35-24.28-12.12-32.24-22.98c-7.96-10.86-12.83-23.69-15.96-36.79" class="st5"></path>
<path d="M1786.89,1260.79c-3.05-0.43-5.36,2.63-6.76,5.38c-4.18,8.15-7.06,16.94-8.54,25.95" class="st5"></path>
<path d="M1700,1194.47c7.79,16,23.07,26.46,23.07,26.46" class="st5"></path>
<path d="M1692.17,1327.16c-16.3,47.52-38.99,92.85-67.29,134.36" class="st5"></path>
<path d="M1583.97,1120.29c-8.77,41.1-8.88,74.97-17.75,120.32" class="st5"></path>
<path d="M1557.27,1229.25c0-1.94-1.56-3.5-3.5-3.5s-3.5,1.56-3.5,3.5c0,1.94,1.56,3.5,3.5,3.5
	C1555.71,1232.73,1557.27,1231.17,1557.27,1229.25z" class="st5"></path>
<circle r="3.5" cy="1185.71" cx="1566.21" class="st5"></circle>
<circle r="3.5" cy="1141.61" cx="1571.29" class="st5"></circle>
<path d="M1605.39,1016.42c20.66,97.48-8.75,198.08-41.98,292.02c-8.28-44.56-30.09-84.93-48.83-126.19
	s-22.54-88.56-4.52-130.16" class="st7"></path>
<g>
	
		<rect height="70.68" width="94.96" class="st3" transform="matrix(0.1455 -0.9894 0.9894 0.1455 -8.3341 2697.1816)" y="1318.07" x="1509.77"></rect>
	
		<rect height="44.37" width="59.6" class="st8" transform="matrix(0.1455 -0.9894 0.9894 0.1455 -8.3509 2697.1687)" y="1331.23" x="1527.43"></rect>
	
		<rect height="14.26" width="15.83" class="st8" transform="matrix(0.1455 -0.9894 0.9894 0.1455 39.3174 2666.8552)" y="1303.53" x="1555.61"></rect>
</g>
<path d="M2170.68,768.25c-7.26,16.77,4.91,98.96,18.5,139.97" class="st5"></path>
<path d="M2085.77,784.84c19.03-5.16,63.29-8.32,82.99-7.64" class="st5"></path>
<path d="M2186.56,891.56c36.24-19.44,70.85-41.91,103.37-67.11c9.05-7.02,18.08-14.38,24.61-23.79
	c6.53-9.41,10.35-21.26,7.88-32.46" class="st5"></path>
<g>
	<g>
		<path d="M2270.51,710.16c-5.34-0.08-16.67-3.71-20.91,0.13c-5.7,5.17,3.56,11.14-5.21,15.32
			c-4.54,2.16-13.81,3.58-9.48,11.7c4.38,8.24,25.52,13.27,33.38,16.5c17.63,7.23,35.87,15.81,54.29,20.55
			c7.94,2.03,20.44,6.61,24.11-3.31c2.9-7.83-0.94-14,3.9-21.55c3.95-6.17,8.96-10.5,1.96-16.18
			C2342.6,725.23,2308.28,716.59,2270.51,710.16z" class="st3"></path>
		<path d="M2353.65,744.99c-3.63,5.51-7.87,11.08-12.16,16.11" class="st2"></path>
		<path d="M2273.95,721.69c-9.9,0.23-18.71,1.15-28.26,3.95" class="st2"></path>
		<path d="M2273.67,741.05c20.51,1.75,43.34,6.94,63.98,3.16" class="st15"></path>
	</g>
</g>
<g>
	<g>
		<path d="M1698.65,786.24c2.13-4.91,9.8-13.98,7.88-19.34c-2.6-7.26-11.67-0.98-12.16-10.69
			c-0.26-5.01,1.98-14.13-7.19-13.25c-9.28,0.88-22.04,18.48-28.02,24.52c-13.44,13.51-28.34,27.08-39.78,42.28
			c-4.93,6.55-13.93,16.35-6.17,23.54c6.13,5.66,13.29,4.48,18.4,11.86c4.18,6.02,6.27,12.29,14.19,8.02
			C1657.12,847.06,1678.25,818.66,1698.65,786.24z" class="st3"></path>
		<path d="M1634.63,849.69c-3.71-5.46-7.23-11.52-10.22-17.39" class="st2"></path>
		<path d="M1686.68,784.99c3.58-9.24,6.1-17.71,7.17-27.61" class="st2"></path>
		<path d="M1668.92,777.32c-9.47,18.27-23.01,37.37-27.42,57.9" class="st15"></path>
	</g>
</g>
<path d="M1434.35,1273.12c6,11.52,13.76,22.11,22.88,31.33" class="st5"></path>
<path d="M1440.33,1201.83c-7.3-36.7-16.97-72.9-28.92-108.35" class="st5"></path>
<path d="M1707.21,1169.86c-11.67-47.99-11.59-100.43,13.83-142.75" class="st5"></path>
<path d="M1631.64,1054.98c25.76-1.58,51.56-2.45,77.38-2.63" class="st5"></path>
<path d="M1477.89,1083.3c-14.45,1.17-28.23,6.34-41.79,11.46c-4.35,1.66-8.81,3.35-12.38,6.32
	c-3.58,2.97-6.19,7.53-5.61,12.16" class="st5"></path>
<g>
	<path d="M1441.03,886.27c-5.7,9.48-9.41,20.17-10.31,31.37c-1.75,21.53,5.87,42.47,13.36,62.55
		c7.47,20.02,16.3,41.66,34.66,51.66c15.26,8.3,34.29,6.49,50.28-0.53c50.88-22.3,72.39-80.94,54.21-132.03
		c-11.93-33.53-49.13-54.63-83.72-51.24C1475.77,850.37,1453.56,865.46,1441.03,886.27z" class="st1"></path>
	<path d="M1465.93,944.8c-13.3-6.34-23.01,8.34-23.01,8.34" class="st2"></path>
	<path d="M1495.9,936.12c12.34-18.48,37.77-9.39,37.77-9.39" class="st2"></path>
	<path d="M1467.22,963.28c0.92,3.91-0.32,7.56-2.77,8.15s-5.19-2.15-6.12-6.06c-0.92-3.91,0.32-7.56,2.77-8.15
		C1463.57,956.63,1466.3,959.34,1467.22,963.28z"></path>
	<ellipse ry="7.3" rx="4.55" cy="949.19" cx="1514.96" transform="matrix(0.9735 -0.2288 0.2288 0.9735 -176.9836 371.7902)"></ellipse>
	<path d="M1470.31,948.02c5.85,6.12,6.94,17.2,8.9,25.08c1.19,4.8,1.35,11.2,7.43,12.14" class="st2"></path>
	<path d="M1553.35,973.8c1.99-8.6-3.35-17.18-11.93-19.19s-17.18,3.35-19.19,11.93c-1.99,8.6,3.35,17.18,11.93,19.19
		C1542.78,987.74,1551.36,982.4,1553.35,973.8z" class="st16"></path>
	<path d="M1455.05,1004.81c6.34,0.68,12.36-3.41,13.85-9.79c1.6-6.91-2.69-13.79-9.6-15.41
		c-5.08-1.19-10.16,0.85-13.13,4.76C1448.74,991.35,1451.6,998.32,1455.05,1004.81z" class="st16"></path>
	<path d="M1583.26,899.3c-11.93-33.53-49.13-54.63-83.72-51.24c-23.77,2.31-45.97,17.43-58.49,38.24
		c-5.7,9.48-9.41,20.17-10.31,31.37c-1.75,21.53,5.87,42.47,13.36,62.55c7.47,20.02,16.3,41.66,34.66,51.66
		c15.26,8.3,34.29,6.49,50.28-0.53c4.06-1.77,7.92-3.78,11.61-6" class="st2"></path>
	<path d="M1507.32,1016.57c9.3-6.21,8.62-21.21,7.96-30.65c-11.29,6.91-25.69,12.55-38.86,13.61
		c0,0,6.85,11.1,12.19,15.39C1493.76,1019.07,1501.25,1020.63,1507.32,1016.57z" class="st3"></path>
</g>
<path d="M1467.54,870.26c-24.86,15.02-36.45,45.54-36.38,73.9c-8.98-17.14-5.93-43.06,2.8-60.48
	c9.35-18.65,51.69-52.3,73.18-31.76L1467.54,870.26z" class="st17"></path>
<path d="M1565.45,847.28c-32.25-20.36-93.68-18.18-112.83,35.45c17.33,11.31,41.12,10.44,58.96,20.59
	c19.55,11.12,39.65,19.46,52.14,34.83c9.9,12.18,3.41,28.57,0.66,44.3c-4.31,24.69-12.23,54.97,6.64,76.23
	c-12.42-14.75-8.83-34.12-3.16-51.05c-3.91,10.16,1.47,23.47,4.76,33.1c9.5,27.76,42.79,36.56,73.86,34.29
	c-10.33-12.14-16.09-31.86-16.09-39.95c0.53,7.3,25.33,26.42,43.86,14.06c-27.91-6.34-42.77-58.99-44.75-74.37
	C1622.7,922.38,1607.59,874.57,1565.45,847.28" class="st6"></path>
<path d="M1513.59,878.14c0,0,22.9,11.72,34.49,19.36c14.73,9.71,19.82,20.7,19.82,20.7" class="st2"></path>
<path d="M1575.82,923.18c1.73-14.3-12.01-36.85-25.61-42.13" class="st2"></path>
<g>
	<path d="M1566.7,962.52c11.91-6.74,18.08-27.64,9.13-39.35c-8.04-10.48-24.33-4.05-25.23,8.45" class="st3"></path>
	<path d="M1559.45,944.99c-3.97-6.98,5.55-14.08,12.08-11.93" class="st2"></path>
	<path d="M1559.07,944.1c0.56-4.93,7.79-3.29,10.09-0.7" class="st2"></path>
</g>
<path d="M1578.17,946.92c-1.58,27.1,2.95,54.55,13.19,79.69" class="st2"></path>
<path d="M1597.76,994.8c3.9,16.37,9.8,32.25,17.54,47.2" class="st2"></path>
<path d="M455.49,1048.35c9.92,19.38,43.71,72.05,52.52,81.91c8.81,9.86,22.04,17.8,35.25,18.71
	c-6.96-39.99,4.8-78.21-9.31-116.28c-14.47-39.09-26.1-79.22-34.76-119.98c-3.39-15.92-6.61-32.63-16.77-45.35
	c-24.99-31.31-69.16-39.18-106.83-64.4c-18.1,28.11-40.35,47.21-40.35,47.21c-2.47,10.97,3.31,55.48-12.66,82.93
	c-2.95,5.08-3.31,11.23-3.73,17.11c-7.02,100.41-10.33,193.37-3.18,293.79c41.98,6.21,58.05,3.93,92.28-21.15
	c1.86-45.65,31.61-90.85,40.4-135.68c5.42-27.59,10.82-61.12,16.24-88.71" class="st11"></path>
<g>
	<path d="M522.2,1059.17c0.02-5.65,2.35-16.79,6.13-21.15c5.1-5.89,5.08,3.16,9.28-5.98c2.16-4.72-0.7-14.4,7.09-9.63
		c11.78,7.21,15.75,28.1,19.25,40.93c4.78,17.46,11.18,34.63,15.04,52.31c1.84,8.41,6.04,21.7-3.63,25.31
		c-7.62,2.86-13.51-1.34-20.91,3.58c-6.04,4.03-10.31,9.18-15.68,1.67C531.12,1135.54,526.89,1113.07,522.2,1059.17z" class="st11"></path>
	<path d="M550.03,1147.66c5.4-3.69,10.86-8.02,15.79-12.4" class="st2"></path>
	<path d="M533.28,1063.07c0.4-10.43,1.43-19.66,4.31-29.66" class="st2"></path>
	<path d="M547.62,1063.31c1.34,21.64,5.95,45.82,1.94,67.46" class="st5"></path>
</g>
<path d="M334.32,1254.69c0,0-3.71-47.33-1.98-169c0.11-8.41-3.03-155.64-3.03-155.64s-8.19-11.84-9.84-18.78
	c-6.12-25.71-3.84-73.65-3.84-73.65s-10.82-10.24-16.11-19.93c-9.97-18.35-13.3-39.44-16.01-60.14c-4.22,7.6-14.43,9.52-22.9,7.62
	c-8.47-1.9-15.66-7.34-22.41-12.82c-8.05-6.53-15.94-13.32-22.77-21.13c-27.53-31.5-81.69-157.6-81.69-157.6
	c-24.67,8.54-49.17,21.81-68.97,38.84c30.84,88.2,74.07,232.7,89.4,324.86c16.15,96.99,33.23,193.26,46.74,290.64
	C241.68,1242.52,291.3,1250.33,334.32,1254.69z" class="st11"></path>
<path d="M310.97,1259.21c0,0-3.71-47.33-1.98-169c0.11-8.41-3.03-155.64-3.03-155.64s-8.19-11.84-9.84-18.78
	c-6.12-25.71-3.84-73.65-3.84-73.65" class="st5"></path>
<g>
	<path d="M121.15,558.69c5.44-1.49,16.8-2.24,22.02,0.23c7.04,3.33-1.67,5.74,8.26,7.32
		c5.12,0.83,13.68-4.54,11.18,4.25c-3.78,13.29-22.85,22.71-34.25,29.53c-15.52,9.28-30.35,20.06-46.35,28.53
		c-7.6,4.03-19.27,11.63-25.35,3.31c-4.8-6.59-2.33-13.38-9.07-19.18c-5.49-4.72-11.61-7.47-5.83-14.66
		C49.98,587.78,70.47,577.68,121.15,558.69z" class="st11"></path>
	<path d="M43.39,609.25c5.01,4.22,10.63,8.32,16.2,11.87" class="st2"></path>
	<path d="M120.36,570.41c10.14-2.41,19.33-3.9,29.73-3.8" class="st2"></path>
	<path d="M123.99,584.28c-20.49,7.09-42.53,18.03-64.47,19.98" class="st5"></path>
</g>
<path d="M228.85,1601.23c-24.75-69.76-42.13-148.64-55.21-221.51c-13.08-72.84-3.16-139.07,19.51-209.52
	c77.7,16.86,146.55,26.06,224.42,9.92c29.51,111.87,72.54,221.3,112.48,329.9C436.65,1538.39,324.89,1583.88,228.85,1601.23z" class="st3"></path>
<path d="M265.62,1601.49c-24.75-69.76-42.13-148.64-55.21-221.51c-10.12-56.34-6.47-108.73,6.19-162.17" class="st5"></path>
<path d="M182.8,1209.27c84.87,18.42,160.07,28.47,245.1,10.84" class="st5"></path>
<path d="M358.94,1368.49c0,0,12.78,131.95,20.74,178.87" class="st2"></path>
<path d="M340.85,1229.29c7.21,56.38,16.41,128.41,16.41,128.41" class="st5"></path>
<path d="M207.3,1292.01c23.65-14.49,39.37-42.38,46.27-69.25" class="st5"></path>
<path d="M467.55,984.94c6.59-38.39,9.63-77.4,9.15-116.33" class="st5"></path>
<path d="M347.89,861.45c0-2.2-1.79-3.99-3.99-3.99c-2.2,0-3.99,1.79-3.99,3.99s1.79,3.99,3.99,3.99
	C346.1,865.44,347.89,863.65,347.89,861.45z" class="st11"></path>
<path d="M324.69,935.22c0-2.2-1.79-3.99-3.99-3.99c-2.2,0-3.99,1.79-3.99,3.99c0,2.2,1.79,3.99,3.99,3.99
	C322.9,939.21,324.69,937.42,324.69,935.22z" class="st11"></path>
<path d="M324.69,994.95c0-2.2-1.79-3.99-3.99-3.99c-2.2,0-3.99,1.79-3.99,3.99c0,2.2,1.79,3.99,3.99,3.99
	C322.9,998.92,324.69,997.15,324.69,994.95z" class="st11"></path>
<path d="M324.69,1054.66c0-2.2-1.79-3.99-3.99-3.99c-2.2,0-3.99,1.79-3.99,3.99s1.79,3.99,3.99,3.99
	C322.9,1058.65,324.69,1056.86,324.69,1054.66z" class="st11"></path>
<path d="M324.69,1114.39c0-2.2-1.79-3.99-3.99-3.99c-2.2,0-3.99,1.79-3.99,3.99s1.79,3.99,3.99,3.99
	C322.9,1118.36,324.69,1116.59,324.69,1114.39z" class="st11"></path>
<path d="M324.69,1174.09c0-2.2-1.79-3.99-3.99-3.99c-2.2,0-3.99,1.79-3.99,3.99s1.79,3.99,3.99,3.99
	C322.9,1178.08,324.69,1176.3,324.69,1174.09z" class="st11"></path>
<path d="M395.84,835.82c15.26,6.3,30.6,12.65,44.6,21.36c14,8.73,26.76,20.04,34.91,34.4" class="st5"></path>
<path d="M209.07,725.06c-30.99,46.01-57.68,96.08-64.9,151.09" class="st5"></path>
<path d="M251.6,775.25c-21.25-7-35.9-22.05-49.04-40.16" class="st5"></path>
<path d="M253.61,1180.55c-1.47-20.78-10.39-75.78-9.56-96.59" class="st5"></path>
<path d="M383.68,1185.35c3.37-16.45,6.74-32.88,10.11-49.32" class="st5"></path>
<path d="M233.48,1176.6c-2.2-10.14-4.4-20.27-6.61-30.41" class="st5"></path>
<path d="M281.35,803.4c5.25,70.91,29.32,147.36,64.28,209.28c10.78-60.93,20.17-128.26,27.14-189.67" class="st7"></path>
<g>
	
		<rect height="93.08" width="69.29" class="st3" transform="matrix(0.9694 -0.2456 0.2456 0.9694 -247.8885 119.7209)" y="1007.21" x="321.42"></rect>
	
		<rect height="58.41" width="43.49" class="st8" transform="matrix(0.9694 -0.2456 0.2456 0.9694 -247.8889 119.7193)" y="1024.54" x="334.32"></rect>
	
		<rect height="15.51" width="13.98" class="st8" transform="matrix(0.9694 -0.2456 0.2456 0.9694 -238.1231 115.9062)" y="1004.94" x="338.66"></rect>
</g>
<path d="M337.22,852.68c3.26-4.25,10.14-3.8,14.49-0.7c4.35,3.12,20.12,27.27,24.35,31.28
	c12.57-20.08,17.8-45.07,25.71-67.39c-6.74-7.49-12.12-15.64-18.87-23.13c-0.96-1.05-1.92-2.13-3.1-2.94
	c-3.26-2.2-6.36-2.05-10.29-1.75c0,0-1.92,10.86,3.56,18.01c0,0-13.94,22.51-35.85,42.34" class="st11"></path>
<path d="M309.03,837.05c-1.45,0-5.46,0.77-6.59,1.69c-9.39,7.72-21.9,17.05-31.29,24.78
	c-13.17-33.04-19.7-68.42-20.94-103.97c10.84,1.07,21.25-3.65,29.36-10.9c1.52-1.37,3.05-2.92,5.04-3.44c2.09-0.55,7,1.11,7,1.11
	s-2.37,7.6-6.13,16.03c0,0,6.83,39.24,28.08,73.22" class="st11"></path>
<path d="M350.56,682.21c7.06-4.48,15.36-8.54,22.05-12.87c13.83-8.96,30-2.73,42.7-14.34
	c-5.53,5.97-18.86,14.17-29.45,18.54c37.13,7.87,68.82-0.94,80.54-20.53c-2.94,6.61-8.62,21.09-14.9,25.89
	c24.56-5.36,29.22-35.74,21.94-54.21c-6.13-15.6-19.16-30.58-31.6-41.4c-23.92-20.79-60.07-23.84-89.69-15.9" class="st6"></path>
<g>
	<path d="M357.99,705.58c-11.91-6.15-18.74-26.4-10.39-38.2c7.49-10.58,23.67-4.86,25.03,7.34" class="st3"></path>
	<path d="M364.43,688.14c3.63-6.98-5.97-13.59-12.29-11.23" class="st2"></path>
	<path d="M364.77,687.23c-0.73-4.82-7.75-2.94-9.92-0.3" class="st2"></path>
</g>
<path d="M367.12,664.45c6.19-11.46,18.4-23.48,30.11-28.85" class="st2"></path>
<path d="M359.59,661.3c1.6-8.07,9.07-14.38,13.79-20.7" class="st2"></path>
<path d="M394.73,578.5c-21.49,1.62-39.37,5.38-57.13,18.48c-20.34,15-35.06,38.61-38.84,63.7" class="st2"></path>
<path d="M328.22,622.43c-6.61,13.77-14.9,27.68-17.76,42.81c-0.98,5.14-1.43,10.37-2.31,15.52" class="st2"></path>
<polyline points="2391.28,1610.81 2234.17,1451.06 1200.21,1451.06 166.24,1451.06 10.91,1608.98" class="st18"></polyline>
<g>
	<polygon points="2109.11,1523.28 1892.72,1514.19 1899.21,1528.29" class="st3"></polygon>
	<path d="M1946.48,1533.29l162.68-2.8c1.96-0.04,3.54-1.64,3.54-3.59l0,0c0-1.99-1.62-3.59-3.59-3.59h-184.59
		L1946.48,1533.29z" class="st3"></path>
	<path d="M1919.74,1532.45l-221.39-7.79c-4.95-0.17-9.24-3.5-10.65-8.26l-60.71-206.1c-1.35-4.57,2.09-9.16,6.87-9.16
		h224.12c5.1,0,9.58,3.35,11.05,8.22l62.17,208.28c2.18,7.41,8.04,12.98,15.3,15.64c-5.04,0-10.86-0.26-15.9-0.26
		C1926.68,1533.01,1923.64,1532.45,1919.74,1532.45z" class="st3"></path>
	<path d="M1627.14,1305.82h226.27c5.1,0,9.58,3.35,11.05,8.22l62.17,208.28c1.47,5.08,4.95,8.17,9.54,10.76" class="st3"></path>
</g>
<g>
	<g>
		<path d="M1392.74,1284.29c-0.36,0-0.72,0-1.05,0c-112.4,0-224.8-0.17-337.2-0.17c-15.79,0-26.83,4.63-26.55,20.94
			c0.36,21.11,3.61,42.62,5.76,63.62c4.23,41.51,9.41,82.93,15.51,124.22c0.51,3.39,1.09,6.98,3.29,9.62
			c3.54,4.23,9.8,4.57,15.32,4.57c100.51-0.02,201-0.04,301.5-0.06c10.24,0,15.09-3.73,16.39-14.25
			c7.79-62.85,22.11-129.32,22.11-192.68c0.36-3.69,0.64-7.7-1.37-10.8C1403.66,1285.07,1397.92,1284.37,1392.74,1284.29z" class="st3"></path>
	</g>
	<g>
		<path d="M1392.74,1292.08c-0.36,0-0.72,0-1.05,0c-112.4,0-224.8-0.15-337.2-0.15c-15.79,0-26.83,4.48-26.55,20.21
			c0.36,20.36,3.61,41.12,5.76,61.38c4.23,40.06,9.41,80.01,15.51,119.85c0.51,3.27,1.09,6.74,3.29,9.28
			c3.54,4.08,9.8,4.42,15.32,4.42c100.51-0.02,201-0.04,301.5-0.06c10.24,0,15.09-3.59,16.39-13.76
			c7.79-60.63,22.11-124.76,22.11-185.9c0.36-3.56,0.64-7.43-1.37-10.41C1403.66,1292.82,1397.92,1292.16,1392.74,1292.08z" class="st3"></path>
	</g>
	<path d="M1383.26,1523.68h-329.94c-2.99,0-5.42-2.43-5.42-5.42v-5.76c0-2.99,2.43-5.42,5.42-5.42h329.94
		c2.99,0,5.42,2.43,5.42,5.42v5.76C1388.68,1521.25,1386.25,1523.68,1383.26,1523.68z" class="st3"></path>
</g>
<g>
	<polygon points="874.1,1378.14 860.91,1496.13 828.9,1496.09 796.87,1496.05 783.92,1378.04" class="st3"></polygon>
	<polygon points="865.99,1463.27 871.93,1412.09 786.01,1411.99 791.86,1463.2" class="st11"></polygon>
	<path d="M829.01,1372.29l42.85,0.04c2.79,0,5.16,2.39,5.55,5.59l0.55,4.48c0.06,0.53-0.34,1-0.88,1l-48.08-0.06
		l-48.08-0.06c-0.53,0-0.94-0.47-0.88-1l0.56-4.48c0.4-3.2,2.77-5.57,5.55-5.57L829.01,1372.29z" class="st6"></path>
	<path d="M829.01,1373.34l41.46,0.04l-0.56-5.23c-0.34-3.07-2.33-5.34-4.69-5.34l-36.21-0.04l-36.21-0.04
		c-2.35,0-4.37,2.28-4.69,5.33l-0.58,5.23L829.01,1373.34z" class="st6"></path>
</g>
<g>
	<polygon points="739.13,1411.97 725.94,1529.96 693.93,1529.93 661.92,1529.89 648.96,1411.88" class="st3"></polygon>
	<polygon points="731.02,1497.11 736.99,1445.92 651.05,1445.83 656.9,1497.03" class="st11"></polygon>
	<path d="M694.07,1406.12l42.85,0.04c2.79,0,5.16,2.39,5.55,5.59l0.55,4.48c0.06,0.53-0.34,1-0.88,1l-48.08-0.06
		l-48.08-0.06c-0.53,0-0.94-0.47-0.88-1l0.56-4.48c0.4-3.2,2.77-5.57,5.55-5.57L694.07,1406.12z" class="st6"></path>
	<path d="M694.07,1407.18l41.46,0.04l-0.56-5.23c-0.34-3.07-2.33-5.34-4.69-5.34l-36.21-0.04l-36.21-0.04
		c-2.35,0-4.37,2.28-4.69,5.33l-0.58,5.23L694.07,1407.18z" class="st6"></path>
</g>
<g>
	<polygon points="306.79,1539.07 536.07,1553 634.66,1486.12 428.11,1473.57" class="st3"></polygon>
</g>
<g>
	<polygon points="243.43,1568.92 473.48,1564.06 560.08,1489.6 352.86,1493.98" class="st3"></polygon>
</g>
</svg>
